# xmcd
# 
# Track frame offsets:
#     150
#     18677
#     30086
#     50595
#     66952
#     80967
#     94041
#     111511
#     122871
#     139567
#     163559
# 
# Disc length: 2390
# 
# Revision: 0
# Processed by: cddbd v1.5.2PL0 Copyright (c) Steve Scherf et al.
# Submitted via: fre:ac v1.0.17
# 
DISCID=9509540b
DTITLE=Boogie Boys - Made In Cali
DYEAR=2012
DGENRE=Blues
TTITLE0=That What Is All About
TTITLE1=You Ain't Nothin' But Fine
TTITLE2=Where'd You Stay Last Night
TTITLE3=First Take
TTITLE4=Christmas With Me
TTITLE5=Cool Breeze
TTITLE6=Brothers Rag
TTITLE7=She Stole My Car
TTITLE8=Sugar
TTITLE9=Big Time Downtown
TTITLE10=Rollin' Or What?
EXTD=
EXTT0=
EXTT1=
EXTT2=
EXTT3=
EXTT4=
EXTT5=
EXTT6=
EXTT7=
EXTT8=
EXTT9=
EXTT10=
PLAYORDER=
